<svg width="100" height="25" viewBox="0 0 100 25" fill="none" xmlns="http://www.w3.org/2000/svg">
<path d="M35.0239 18.1894C34.1 18.3626 33.1926 18.4369 32.3017 18.4121C31.419 18.3956 30.6271 18.243 29.9259 17.9543C29.233 17.6573 28.705 17.183 28.3421 16.5313C28.0121 15.9209 27.8389 15.3022 27.8224 14.6753C27.8059 14.0401 27.7976 13.3224 27.7976 12.5222V8.67399V4.82576H29.2691L27.7976 3.5426V1.11364H31.1633V12.3242C31.1633 12.8439 31.1674 13.3141 31.1757 13.7348C31.1922 14.1473 31.2788 14.4773 31.4355 14.7247C31.7325 15.1949 32.2068 15.4507 32.8585 15.4919C33.5102 15.5332 34.232 15.5002 35.0239 15.3929V18.1894ZM25.5209 7.42424V4.82576H30.2724H35.0239V7.42424H25.5209Z" fill="#191E3B"/>
<path d="M35.7746 18.1894V4.82576H38.7443V8.09242L38.4226 7.67172C38.5959 7.20976 38.8268 6.78906 39.1156 6.4096C39.4043 6.03013 39.759 5.71667 40.1797 5.46919C40.5014 5.27121 40.852 5.1186 41.2315 5.01136C41.6109 4.89588 42.0028 4.82576 42.407 4.80101C42.8112 4.76801 43.2154 4.77626 43.6196 4.82576V7.96869C43.2484 7.8532 42.8153 7.81608 42.3204 7.85732C41.8337 7.89032 41.3923 8.00168 40.9964 8.19141C40.6004 8.3729 40.2663 8.61625 39.9941 8.92146C39.7219 9.21843 39.5156 9.57315 39.3754 9.98561C39.2352 10.3898 39.165 10.8476 39.165 11.3591V18.1894H35.7746Z" fill="#191E3B"/>
<path d="M43.9935 2.9697V0H47.3592V2.9697H43.9935ZM43.9935 18.1894V4.82576H47.3592V18.1894H43.9935Z" fill="#191E3B"/>
<path d="M54.5582 24.5C53.7992 24.5 53.0774 24.3763 52.3928 24.1288C51.7081 23.8896 51.0935 23.5513 50.5491 23.1141C50.0129 22.6852 49.5757 22.182 49.2375 21.6045L52.3556 20.0949C52.5701 20.4909 52.8753 20.792 53.2713 20.9982C53.6755 21.2045 54.1127 21.3076 54.5829 21.3076C55.0861 21.3076 55.5604 21.221 56.0059 21.0477C56.4514 20.8827 56.8061 20.6311 57.07 20.2929C57.3423 19.963 57.4701 19.5505 57.4536 19.0556V15.1702H57.8743V4.82576H60.8193V19.105C60.8193 19.435 60.8028 19.7444 60.7698 20.0331C60.745 20.33 60.6955 20.6229 60.6213 20.9116C60.4068 21.7283 60.0067 22.4006 59.4211 22.9285C58.8436 23.4565 58.1342 23.8483 57.2928 24.104C56.4514 24.368 55.5398 24.5 54.5582 24.5ZM54.2612 18.5606C53.0321 18.5606 51.9556 18.2513 51.0317 17.6326C50.1077 17.0139 49.386 16.1725 48.8663 15.1083C48.3548 14.0442 48.0991 12.8439 48.0991 11.5076C48.0991 10.1465 48.3589 8.93796 48.8786 7.88207C49.4066 6.81793 50.1449 5.98064 51.0935 5.3702C52.0422 4.75976 53.1558 4.45455 54.4344 4.45455C55.7048 4.45455 56.7731 4.76389 57.6392 5.38258C58.5054 6.00126 59.1612 6.84268 59.6067 7.90682C60.0521 8.97096 60.2748 10.1712 60.2748 11.5076C60.2748 12.8439 60.048 14.0442 59.5943 15.1083C59.1488 16.1725 58.4806 17.0139 57.5897 17.6326C56.6988 18.2513 55.5893 18.5606 54.2612 18.5606ZM54.8056 15.5662C55.5563 15.5662 56.1544 15.3971 56.5998 15.0588C57.0535 14.7206 57.3794 14.2463 57.5774 13.6359C57.7753 13.0254 57.8743 12.316 57.8743 11.5076C57.8743 10.6992 57.7753 9.98973 57.5774 9.37929C57.3794 8.76886 57.0618 8.29453 56.6246 7.95631C56.1956 7.6181 55.6306 7.44899 54.9294 7.44899C54.1787 7.44899 53.56 7.6346 53.0733 8.00581C52.5949 8.36877 52.2402 8.8596 52.0092 9.47828C51.7782 10.0887 51.6627 10.7652 51.6627 11.5076C51.6627 12.2582 51.7741 12.9429 51.9968 13.5616C52.2195 14.1721 52.5619 14.6588 53.0238 15.0217C53.4858 15.3847 54.0797 15.5662 54.8056 15.5662Z" fill="#191E3B"/>
<path d="M68.0709 18.5606C66.7263 18.5606 65.5466 18.2595 64.532 17.6573C63.5173 17.0551 62.7254 16.2261 62.1562 15.1702C61.5953 14.1061 61.3148 12.8852 61.3148 11.5076C61.3148 10.1135 61.6035 8.88847 62.181 7.83258C62.7584 6.76843 63.5545 5.93939 64.5691 5.34545C65.5838 4.75151 66.751 4.45455 68.0709 4.45455C69.4155 4.45455 70.5951 4.75564 71.6098 5.35783C72.6327 5.96002 73.4287 6.79318 73.9979 7.85732C74.5671 8.91322 74.8517 10.13 74.8517 11.5076C74.8517 12.8934 74.563 14.1184 73.9855 15.1826C73.4163 16.2385 72.6203 17.0675 71.5974 17.6697C70.5827 18.2636 69.4072 18.5606 68.0709 18.5606ZM68.0709 15.4177C69.1515 15.4177 69.9558 15.0547 70.4838 14.3288C71.0199 13.5946 71.288 12.6542 71.288 11.5076C71.288 10.3197 71.0158 9.37104 70.4714 8.66162C69.9352 7.95219 69.135 7.59747 68.0709 7.59747C67.3367 7.59747 66.7345 7.76246 66.2643 8.09242C65.7941 8.42239 65.4435 8.88022 65.2125 9.46591C64.9898 10.0516 64.8784 10.7322 64.8784 11.5076C64.8784 12.7037 65.1465 13.6565 65.6827 14.3659C66.2272 15.0671 67.0232 15.4177 68.0709 15.4177Z" fill="#191E3B"/>
<path d="M78.4753 18.1894L73.6248 4.82576H76.9904L80.1581 14.0813L83.3258 4.82576H86.6914L81.8409 18.1894H78.4753Z" fill="#191E3B"/>
<path d="M92.2306 18.5606C90.886 18.5606 89.7064 18.2595 88.6917 17.6573C87.6771 17.0551 86.8851 16.2261 86.316 15.1702C85.755 14.1061 85.4745 12.8852 85.4745 11.5076C85.4745 10.1135 85.7633 8.88847 86.3407 7.83258C86.9181 6.76843 87.7142 5.93939 88.7288 5.34545C89.7435 4.75151 90.9107 4.45455 92.2306 4.45455C93.5752 4.45455 94.7548 4.75564 95.7695 5.35783C96.7924 5.96002 97.5884 6.79318 98.1576 7.85732C98.7268 8.91322 99.0114 10.13 99.0114 11.5076C99.0114 12.8934 98.7227 14.1184 98.1452 15.1826C97.5761 16.2385 96.78 17.0675 95.7571 17.6697C94.7425 18.2636 93.567 18.5606 92.2306 18.5606ZM92.2306 15.4177C93.3112 15.4177 94.1155 15.0547 94.6435 14.3288C95.1797 13.5946 95.4478 12.6542 95.4478 11.5076C95.4478 10.3197 95.1755 9.37104 94.6311 8.66162C94.0949 7.95219 93.2947 7.59747 92.2306 7.59747C91.4964 7.59747 90.8942 7.76246 90.424 8.09242C89.9538 8.42239 89.6032 8.88022 89.3723 9.46591C89.1495 10.0516 89.0382 10.7322 89.0382 11.5076C89.0382 12.7037 89.3063 13.6565 89.8425 14.3659C90.3869 15.0671 91.183 15.4177 92.2306 15.4177Z" fill="#191E3B"/>
<path d="M5.08492 11.4077L0.0467163 0.707028C-0.109578 0.375072 0.145426 0 0.527411 0H3.83871C4.59319 0 5.31677 0.285451 5.85027 0.793557L15.3951 9.88411C15.8562 10.3232 16.4815 10.5699 17.1335 10.5699H21.1262C21.5955 10.5699 21.8306 11.1103 21.4987 11.4264L14.5943 18.0022C14.2189 18.3597 13.7097 18.5606 13.1788 18.5606H8.82698C8.42144 18.5606 8.16798 18.1425 8.37075 17.808L11.3391 12.9113C11.5419 12.5768 11.2884 12.1587 10.8829 12.1587H6.30268C5.77687 12.1587 5.30006 11.8647 5.08492 11.4077Z" fill="#FDDB32"/>
</svg>
