<svg width="16" height="16" viewBox="0 0 16 16" fill="none" xmlns="http://www.w3.org/2000/svg">
<rect width="16" height="16" rx="2" fill="#2A0088"/>
<path fill-rule="evenodd" clip-rule="evenodd" d="M5.69009 6.91176L6.76113 6.53111C6.76113 6.53111 6.74967 6.4421 6.71126 6.39841C6.67286 6.35473 6.60377 6.32771 6.60377 6.32771L5.11514 5.6549C5.11514 5.6549 5.06788 5.63513 5.03336 5.65893C4.99883 5.68273 5.00005 5.74455 5.00005 5.74455V6.60588C5.00005 6.60588 4.99634 6.68835 5.09234 6.8732C5.18834 7.05804 5.41574 7.01097 5.41574 7.01097L5.69009 6.91176Z" fill="#ED1651"/>
<path fill-rule="evenodd" clip-rule="evenodd" d="M9.9539 4.83356L10.9502 4.13905C10.9502 4.13905 10.9652 4.01905 10.9268 3.97536C10.8884 3.93167 10.8427 3.91822 10.8427 3.91822L6.53988 2.00771C6.53988 2.00771 6.49262 1.98793 6.4581 2.01173C6.42357 2.03553 6.42479 2.09735 6.42479 2.09735V2.84C6.42479 2.84 6.4242 3.01208 6.5202 3.19692C6.6162 3.38176 6.77197 3.42962 6.77197 3.42962L9.9539 4.83356Z" fill="#ED1651"/>
<path fill-rule="evenodd" clip-rule="evenodd" d="M9.95386 6.99527L10.9502 6.35307C10.9502 6.35307 10.9714 6.19044 10.933 6.14676C10.8946 6.10307 10.8426 6.07993 10.8426 6.07993L5.11513 3.49142C5.11513 3.49142 5.06787 3.47165 5.03334 3.49544C4.99882 3.51924 5.00004 3.58106 5.00004 3.58106V4.32371C5.00004 4.32371 4.99944 4.49579 5.09544 4.68063C5.19144 4.86547 5.34722 4.91333 5.34722 4.91333L9.95386 6.99527Z" fill="#ED1651"/>
<path fill-rule="evenodd" clip-rule="evenodd" d="M10.8427 3.91822C10.8427 3.91822 10.9008 3.92912 10.9501 3.98885C10.9994 4.04858 11 4.12154 11 4.12154V5.10483C11 5.10483 10.9976 5.23918 10.9533 5.35999C10.909 5.4808 10.8442 5.50938 10.8442 5.50938L6.40922 7.51374C6.40922 7.51374 6.38854 7.52168 6.36164 7.52168C6.33474 7.52168 6.31406 7.51374 6.31406 7.51374L5.11601 6.97227C5.11601 6.97227 5.08629 6.96366 5.04412 6.88146C4.99663 6.78925 5.00005 6.60588 5.00005 6.60588C5.00005 6.60588 5.0075 6.70003 5.05014 6.7446C5.09278 6.78917 5.20643 6.74027 5.20643 6.74027L10.7092 4.25327C10.7092 4.25327 10.9277 4.14237 10.9277 4.02968C10.9277 3.95187 10.8427 3.91822 10.8427 3.91822Z" fill="white"/>
<path fill-rule="evenodd" clip-rule="evenodd" d="M10.8426 6.07993C10.8426 6.07993 10.9008 6.09081 10.9501 6.15054C10.9994 6.21027 11 6.28324 11 6.28324V7.26653C11 7.26653 10.9976 7.40087 10.9533 7.52168C10.9091 7.6425 10.8442 7.67108 10.8442 7.67108L6.40927 9.67544V8.35803L10.7093 6.41466C10.7093 6.41466 10.9278 6.30375 10.9278 6.19106C10.9278 6.11326 10.8426 6.07993 10.8426 6.07993Z" fill="white"/>
<path fill-rule="evenodd" clip-rule="evenodd" d="M8.70811 9.54077C8.74927 9.59198 8.74927 9.70467 8.74927 9.70467V10.44C8.74927 10.44 8.74689 10.5743 8.70261 10.6951C8.65832 10.8159 8.59346 10.8445 8.59346 10.8445L6.40927 11.8317V10.5143L8.45852 9.58808C8.45852 9.58808 8.66696 9.48957 8.70811 9.54077Z" fill="white"/>
<path fill-rule="evenodd" clip-rule="evenodd" d="M7.38616 12.2903C7.42732 12.3415 7.42732 12.4542 7.42732 12.4542V13.1895C7.42732 13.1895 7.42495 13.3238 7.38066 13.4446C7.33637 13.5654 7.27152 13.594 7.27152 13.594L7.13657 13.655L6.40927 14V12.6826L7.13657 12.3376C7.13657 12.3376 7.34501 12.2391 7.38616 12.2903Z" fill="white"/>
</svg>
