<svg width="16" height="16" viewBox="0 0 16 16" fill="none" xmlns="http://www.w3.org/2000/svg">
<rect width="16" height="16" rx="2" fill="#041E42"/>
<path d="M9.39952 3.11767H10.126V3.67645H9.39952V3.11767Z" fill="#5162AA"/>
<path d="M6.76228 9.10404H8.94154V11.419H6.76228V9.10404Z" fill="#8C338A"/>
<path d="M8.21526 11.8982H9.64121V12.7497H8.21526V11.8982Z" fill="#5D81C1"/>
<path d="M7.35441 12.297H9.07632V14H7.35441V12.297Z" fill="#E75027"/>
<path d="M9.50681 10.7543H10.9866V11.3929H9.50681V10.7543Z" fill="#D5292A"/>
<path d="M8.96831 9.58333H10.4749V9.98249H8.96831V9.58333Z" fill="#F6A124"/>
<path d="M10.9866 10.7543H12.0353V11.047H10.9861L10.9866 10.7543Z" fill="#6A95CD"/>
<path d="M8.96831 7.74718H10.4211V9.58317L8.96831 9.58333V7.74718Z" fill="#3370B6"/>
<path d="M6.11651 6.33726H8.94149V9.07787H6.11651V6.33726Z" fill="#74C7DC"/>
<path d="M4.47527 6.33726H6.35857V7.85389H4.47527V6.33726Z" fill="#92C144"/>
<path d="M6.92373 3.7827H10.1253V6.36369H6.92373V3.7827Z" fill="#5162AA"/>
<path d="M10.3945 6.68309H12.7352V9.50357H10.3945V6.68309Z" fill="#199BD6"/>
<path d="M10.0448 8.27996H12.0357V10.7811H10.0448V8.27996Z" fill="#F6A124"/>
<path d="M8.96831 9.98249L10.4481 9.98265V11.4195H8.96831V9.98249Z" fill="#D5292A"/>
<path d="M8.08064 10.8607H9.99086V11.8985H8.08064V10.8607Z" fill="#1F9AA7"/>
<path d="M12.0357 9.26398H12.4393V10.5145H12.0357V9.26398Z" fill="#A5BFDF"/>
<path d="M12.7351 6.60323H13.8113V7.26841H12.7351V6.60323Z" fill="#3FB6AF"/>
<path d="M12.6541 7.24141H13.4344V7.66711H12.6541V7.24141Z" fill="#AF2458"/>
<path d="M8.96831 5.24621H10.4211V7.77398H8.96831V5.24621Z" fill="#7AC19A"/>
<path d="M10.3945 4.23504H12.3585V6.68299L10.3945 6.68309V4.23504Z" fill="#E5DF22"/>
<path d="M10.152 3.7827H11.578V6.07103H10.152V3.7827Z" fill="#34BBD0"/>
<path d="M12.0625 6.01801H13.9997V6.6832H12.0625V6.01801Z" fill="#6BA8DB"/>
<path d="M12.3581 4.5279H13.2728V6.01796H12.3581V4.5279Z" fill="#DF5297"/>
<path d="M13.0044 5.00662H13.8653V5.61864H13.0044V5.00662Z" fill="#604696"/>
<path d="M12.7893 5.61869H14V6.2307H12.7893V5.61869Z" fill="#F9D805"/>
<path fill-rule="evenodd" clip-rule="evenodd" d="M10.1257 3.09077H9.39931L9.39952 3.67645H10.126L10.1257 3.09077ZM8.24245 3.11719H6.92414V4.55402H8.24245V3.11719Z" fill="#5162AA"/>
<path d="M2.86138 3.11767H6.95086V6.36384H2.86138V3.11767Z" fill="#16B9E7"/>
<path d="M4.9596 2H6.38554V3.83594H4.9596V2Z" fill="#42AD4B"/>
<path d="M2 6.09766H4.63661V7.10879H2V6.09766Z" fill="#E6B722"/>
<path d="M8.24208 2.15974H9.26443V3.78283H8.24208V2.15974Z" fill="#B9CF36"/>
<path d="M9.61461 8.27996H10.0182V8.67907H9.61461V8.27996Z" fill="#92C144"/>
</svg>
