<svg width="16" height="16" viewBox="0 0 16 16" fill="none" xmlns="http://www.w3.org/2000/svg">
<rect width="16" height="16" rx="2" fill="#FF7020"/>
<path d="M2.30206 10.129C3.16338 12.4152 5.37033 14.042 7.95797 14.042C8.3392 14.042 8.71245 14.0064 9.07404 13.9389C6.27032 13.4152 4.14809 11.1683 4.14809 8.21302C4.14809 6.10919 5.8535 4.19011 7.95797 4.19011C8.34657 4.19011 8.72103 4.24842 9.07404 4.35647C10.6333 4.83347 11.7679 6.28413 11.7679 8C11.7679 9.71585 10.634 11.1665 9.07404 11.6435C9.42705 11.7516 9.80212 11.8099 10.1901 11.8099C12.294 11.8099 14 9.89082 14 7.78699C14 4.83105 11.8777 2.58477 9.07404 2.06111C8.71245 1.99355 8.3392 1.95796 7.95797 1.95796C5.37033 1.95796 3.16338 3.58482 2.30206 5.87099C2.30206 5.87099 1.99982 6.79208 2 8.00061C2.00018 9.20913 2.30206 10.129 2.30206 10.129Z" fill="white"/>
</svg>
