<svg width="19" height="16" viewBox="0 0 19 16" fill="none" xmlns="http://www.w3.org/2000/svg">
<path d="M4.46168 9.83394L0.0409905 0.609487C-0.0961475 0.323328 0.127602 0 0.462768 0H3.36822C4.03023 0 4.66512 0.246071 5.13323 0.684079L13.5082 8.52051C13.9128 8.89904 14.4614 9.11169 15.0335 9.11169H18.5368C18.9486 9.11169 19.1549 9.57757 18.8637 9.85004L12.8055 15.5186C12.4761 15.8268 12.0294 16 11.5635 16H7.7451C7.38926 16 7.16686 15.6396 7.34478 15.3512L9.94934 11.1301C10.1273 10.8418 9.90486 10.4813 9.54903 10.4813H5.53018C5.06882 10.4813 4.65045 10.2278 4.46168 9.83394Z" fill="#191E3B"/>
</svg>
