<svg width="319" height="172" viewBox="0 0 319 172" fill="none" xmlns="http://www.w3.org/2000/svg">
<g clip-path="url(#clip0_79_975)">
<mask id="mask0_79_975" style="mask-type:luminance" maskUnits="userSpaceOnUse" x="0" y="0" width="319" height="172">
<path d="M0 0H319V171.464H0V0Z" fill="white"/>
</mask>
<g mask="url(#mask0_79_975)">
<path d="M0.850897 12.4315H11.9098V-84.4463H12.76V12.4315H23.8181V-84.4463H24.6698V12.4315H35.728V-84.4463H36.5789V12.4315H47.6378V-84.4463H48.488V12.4315H59.5469V-84.4463H60.3978V12.4315H71.456V-84.4463H72.3069V12.4315H83.365V-84.4463H84.216V12.4315H95.2749V-84.4463H96.125V12.4315H107.185V-84.4463H108.035V12.4315H119.093V-84.4463H119.945V12.4315H131.003V-84.4463H131.853V12.4315H142.912V-84.4463H143.763V12.4315H154.821V-84.4463H155.672V12.4315H166.731V-84.4463H167.581V12.4315H178.64V-84.4463H179.491V12.4315H190.55V-84.4463H191.4V12.4315H202.458V-84.4463H203.31V12.4315H214.368V-84.4463H215.218V12.4315H226.278V-84.4463H227.128V12.4315H238.187V-84.4463H239.038V12.4315H250.096V-84.4463H250.947V12.4315H262.005V-84.4463H262.856V12.4315H273.915V-84.4463H274.765V12.4315H285.825V-84.4463H286.675V12.4315H297.733V-84.4463H298.585V12.4315H309.643V-84.4463H310.493V12.4315H321.552V-84.4463H322.403V12.4315H330.059V13.2883H322.403V24.4337H330.059V25.2913H322.403V36.4359H330.059V37.2935H322.403V48.439H330.059V49.2958H322.403V60.4412H330.059V61.2988H322.403V72.4434H330.059V73.301H322.403V84.4465H330.059V85.3033H322.403V96.4487H330.059V97.3063H322.403V108.452H330.059V109.308H322.403V120.453H330.059V121.312H322.403V132.456H330.059V133.313H322.403V144.459H330.059V145.316H322.403V156.461H330.059V157.319H322.403V168.464H330.059V169.321H322.403V267.055H321.552V169.321H310.493V267.055H309.643V169.321H298.585V267.055H297.733V169.321H286.675V267.055H285.825V169.321H274.765V267.055H273.915V169.321H262.856V267.055H262.005V169.321H250.947V267.055H250.096V169.321H239.038V267.055H238.187V169.321H227.128V267.055H226.278V169.321H215.218V267.055H214.368V169.321H203.31V267.055H202.458V169.321H191.4V267.055H190.55V169.321H179.491V267.055H178.64V169.321H167.582V267.055H166.731V169.321H155.672V267.055H154.822V169.321H143.763V267.055H142.912V169.321H131.853V267.055H131.003V169.321H119.945V267.055H119.093V169.321H108.035V267.055H107.185V169.321H96.125V267.055H95.2749V169.321H84.216V267.055H83.365V169.321H72.3069V267.055H71.456V169.321H60.3978V267.055H59.5469V169.321H48.488V267.055H47.6378V169.321H36.5789V267.055H35.728V169.321H24.6698V267.055H23.8181V169.321H12.76V267.055H11.9098V169.321H0.850897V267.055H-3.43323e-05V169.321H-18.715V168.464H-3.43323e-05V157.319H-18.715V156.461H-3.43323e-05V145.316H-18.715V144.459H-3.43323e-05V133.313H-18.715V132.456H-3.43323e-05V121.312H-18.715V120.453H-3.43323e-05V109.308H-18.715V108.452H-3.43323e-05V97.3063H-18.715V96.4487H-3.43323e-05V85.3033H-18.715V84.4465H-3.43323e-05V73.301H-18.715V72.4434H-3.43323e-05V61.2988H-18.715V60.4412H-3.43323e-05V49.2958H-18.715V48.439H-3.43323e-05V37.2935H-18.715V36.4359H-3.43323e-05V25.2913H-18.715V24.4337H-3.43323e-05V13.2883H-18.715V12.4315H-3.43323e-05V-84.4463H0.850897V12.4315ZM310.493 157.319V168.464H321.552V157.319H310.493ZM0.850897 168.464H11.9098V157.319H0.850897V168.464ZM12.76 168.464H23.8181V157.319H12.76V168.464ZM24.6698 168.464H35.728V157.319H24.6698V168.464ZM36.5789 168.464H47.6378V157.319H36.5789V168.464ZM48.488 168.464H59.5469V157.319H48.488V168.464ZM60.3978 168.464H71.456V157.319H60.3978V168.464ZM72.3069 168.464H83.365V157.319H72.3069V168.464ZM84.216 168.464H95.2749V157.319H84.216V168.464ZM96.125 168.464H107.185V157.319H96.125V168.464ZM108.035 168.464H119.093V157.319H108.035V168.464ZM119.945 168.464H131.003V157.319H119.945V168.464ZM131.853 168.464H142.912V157.319H131.853V168.464ZM143.763 168.464H154.822V157.319H143.763V168.464ZM155.672 168.464H166.731V157.319H155.672V168.464ZM167.582 168.464H178.64V157.319H167.582V168.464ZM179.491 168.464H190.55V157.319H179.491V168.464ZM191.4 168.464H202.458V157.319H191.4V168.464ZM203.31 168.464H214.368V157.319H203.31V168.464ZM215.218 168.464H226.278V157.319H215.218V168.464ZM227.128 168.464H238.187V157.319H227.128V168.464ZM239.038 168.464H250.096V157.319H239.038V168.464ZM250.947 168.464H262.005V157.319H250.947V168.464ZM262.856 168.464H273.915V157.319H262.856V168.464ZM274.765 168.464H285.825V157.319H274.765V168.464ZM286.675 168.464H297.733V157.319H286.675V168.464ZM298.585 168.464H309.643V157.319H298.585V168.464ZM310.493 145.316V156.461H321.552V145.316H310.493ZM0.850897 156.461H11.9098V145.316H0.850897V156.461ZM12.76 156.461H23.8181V145.316H12.76V156.461ZM24.6698 156.461H35.728V145.316H24.6698V156.461ZM36.5789 156.461H47.6378V145.316H36.5789V156.461ZM48.488 156.461H59.5469V145.316H48.488V156.461ZM60.3978 156.461H71.456V145.316H60.3978V156.461ZM72.3069 156.461H83.365V145.316H72.3069V156.461ZM84.216 156.461H95.2749V145.316H84.216V156.461ZM96.125 156.461H107.185V145.316H96.125V156.461ZM108.035 156.461H119.093V145.316H108.035V156.461ZM119.945 156.461H131.003V145.316H119.945V156.461ZM131.853 156.461H142.912V145.316H131.853V156.461ZM143.763 156.461H154.822V145.316H143.763V156.461ZM155.672 156.461H166.731V145.316H155.672V156.461ZM167.582 156.461H178.64V145.316H167.582V156.461ZM179.491 156.461H190.55V145.316H179.491V156.461ZM191.4 156.461H202.458V145.316H191.4V156.461ZM203.31 156.461H214.368V145.316H203.31V156.461ZM215.218 156.461H226.278V145.316H215.218V156.461ZM227.128 156.461H238.187V145.316H227.128V156.461ZM239.038 156.461H250.096V145.316H239.038V156.461ZM250.947 156.461H262.005V145.316H250.947V156.461ZM262.856 156.461H273.915V145.316H262.856V156.461ZM274.765 156.461H285.825V145.316H274.765V156.461ZM286.675 156.461H297.733V145.316H286.675V156.461ZM298.585 156.461H309.643V145.316H298.585V156.461ZM310.493 133.313V144.459H321.552V133.313H310.493ZM0.850897 144.459H11.9098V133.313H0.850897V144.459ZM12.76 144.459H23.8181V133.313H12.76V144.459ZM24.6698 144.459H35.728V133.313H24.6698V144.459ZM36.5789 144.459H47.6378V133.313H36.5789V144.459ZM48.488 144.459H59.5469V133.313H48.488V144.459ZM60.3978 144.459H71.456V133.313H60.3978V144.459ZM72.3069 144.459H83.365V133.313H72.3069V144.459ZM84.216 144.459H95.2749V133.313H84.216V144.459ZM96.125 144.459H107.185V133.313H96.125V144.459ZM108.035 144.459H119.093V133.313H108.035V144.459ZM119.945 144.459H131.003V133.313H119.945V144.459ZM131.853 144.459H142.912V133.313H131.853V144.459ZM143.763 144.459H154.822V133.313H143.763V144.459ZM155.672 144.459H166.731V133.313H155.672V144.459ZM167.582 144.459H178.64V133.313H167.582V144.459ZM179.491 144.459H190.55V133.313H179.491V144.459ZM191.4 144.459H202.458V133.313H191.4V144.459ZM203.31 144.459H214.368V133.313H203.31V144.459ZM215.218 144.459H226.278V133.313H215.218V144.459ZM227.128 144.459H238.187V133.313H227.128V144.459ZM239.038 144.459H250.096V133.313H239.038V144.459ZM250.947 144.459H262.005V133.313H250.947V144.459ZM262.856 144.459H273.915V133.313H262.856V144.459ZM274.765 144.459H285.825V133.313H274.765V144.459ZM286.675 144.459H297.733V133.313H286.675V144.459ZM298.585 144.459H309.643V133.313H298.585V144.459ZM310.493 121.312V132.456H321.552V121.312H310.493ZM0.850897 132.456H11.9098V121.312H0.850897V132.456ZM12.76 132.456H23.8181V121.312H12.76V132.456ZM24.6698 132.456H35.728V121.312H24.6698V132.456ZM36.5789 132.456H47.6378V121.312H36.5789V132.456ZM48.488 132.456H59.5469V121.312H48.488V132.456ZM60.3978 132.456H71.456V121.312H60.3978V132.456ZM72.3069 132.456H83.365V121.312H72.3069V132.456ZM84.216 132.456H95.2749V121.312H84.216V132.456ZM96.125 132.456H107.185V121.312H96.125V132.456ZM108.035 132.456H119.093V121.312H108.035V132.456ZM119.945 132.456H131.003V121.312H119.945V132.456ZM131.853 132.456H142.912V121.312H131.853V132.456ZM143.763 132.456H154.822V121.312H143.763V132.456ZM155.672 132.456H166.731V121.312H155.672V132.456ZM167.582 132.456H178.64V121.312H167.582V132.456ZM179.491 132.456H190.55V121.312H179.491V132.456ZM191.4 132.456H202.458V121.312H191.4V132.456ZM203.31 132.456H214.368V121.312H203.31V132.456ZM215.218 132.456H226.278V121.312H215.218V132.456ZM227.128 132.456H238.187V121.312H227.128V132.456ZM239.038 132.456H250.096V121.312H239.038V132.456ZM250.947 132.456H262.005V121.312H250.947V132.456ZM262.856 132.456H273.915V121.312H262.856V132.456ZM274.765 132.456H285.825V121.312H274.765V132.456ZM286.675 132.456H297.733V121.312H286.675V132.456ZM298.585 132.456H309.643V121.312H298.585V132.456ZM310.493 109.308V120.453H321.552V109.308H310.493ZM0.850897 120.453H11.9098V109.308H0.850897V120.453ZM12.76 120.453H23.8181V109.308H12.76V120.453ZM24.6698 120.453H35.728V109.308H24.6698V120.453ZM36.5789 120.453H47.6378V109.308H36.5789V120.453ZM48.488 120.453H59.5469V109.308H48.488V120.453ZM60.3978 120.453H71.456V109.308H60.3978V120.453ZM72.3069 120.453H83.365V109.308H72.3069V120.453ZM84.216 120.453H95.2749V109.308H84.216V120.453ZM96.125 120.453H107.185V109.308H96.125V120.453ZM108.035 120.453H119.093V109.308H108.035V120.453ZM119.945 120.453H131.003V109.308H119.945V120.453ZM131.853 120.453H142.912V109.308H131.853V120.453ZM143.763 120.453H154.822V109.308H143.763V120.453ZM155.672 120.453H166.731V109.308H155.672V120.453ZM167.582 120.453H178.64V109.308H167.582V120.453ZM179.491 120.453H190.55V109.308H179.491V120.453ZM191.4 120.453H202.458V109.308H191.4V120.453ZM203.31 120.453H214.368V109.308H203.31V120.453ZM215.218 120.453H226.278V109.308H215.218V120.453ZM227.128 120.453H238.187V109.308H227.128V120.453ZM239.038 120.453H250.096V109.308H239.038V120.453ZM250.947 120.453H262.005V109.308H250.947V120.453ZM262.856 120.453H273.915V109.308H262.856V120.453ZM274.765 120.453H285.825V109.308H274.765V120.453ZM286.675 120.453H297.733V109.308H286.675V120.453ZM298.585 120.453H309.643V109.308H298.585V120.453ZM310.493 97.3063V108.452H321.552V97.3063H310.493ZM0.850897 108.452H11.9098V97.3063H0.850897V108.452ZM12.76 108.452H23.8181V97.3063H12.76V108.452ZM24.6698 108.452H35.728V97.3063H24.6698V108.452ZM36.5789 108.452H47.6378V97.3063H36.5789V108.452ZM48.488 108.452H59.5469V97.3063H48.488V108.452ZM60.3978 108.452H71.456V97.3063H60.3978V108.452ZM72.3069 108.452H83.365V97.3063H72.3069V108.452ZM84.216 108.452H95.2749V97.3063H84.216V108.452ZM96.125 108.452H107.185V97.3063H96.125V108.452ZM108.035 108.452H119.093V97.3063H108.035V108.452ZM119.945 108.452H131.003V97.3063H119.945V108.452ZM131.853 108.452H142.912V97.3063H131.853V108.452ZM143.763 108.452H154.822V97.3063H143.763V108.452ZM155.672 108.452H166.731V97.3063H155.672V108.452ZM167.582 108.452H178.64V97.3063H167.582V108.452ZM179.491 108.452H190.55V97.3063H179.491V108.452ZM191.4 108.452H202.458V97.3063H191.4V108.452ZM203.31 108.452H214.368V97.3063H203.31V108.452ZM215.218 108.452H226.278V97.3063H215.218V108.452ZM227.128 108.452H238.187V97.3063H227.128V108.452ZM239.038 108.452H250.096V97.3063H239.038V108.452ZM250.947 108.452H262.005V97.3063H250.947V108.452ZM262.856 108.452H273.915V97.3063H262.856V108.452ZM274.765 108.452H285.825V97.3063H274.765V108.452ZM286.675 108.452H297.733V97.3063H286.675V108.452ZM298.585 108.452H309.643V97.3063H298.585V108.452ZM310.493 85.3033V96.4487H321.552V85.3033H310.493ZM0.850897 96.4487H11.9098V85.3033H0.850897V96.4487ZM12.76 96.4487H23.8181V85.3033H12.76V96.4487ZM24.6698 96.4487H35.728V85.3033H24.6698V96.4487ZM36.5789 96.4487H47.6378V85.3033H36.5789V96.4487ZM48.488 96.4487H59.5469V85.3033H48.488V96.4487ZM60.3978 96.4487H71.456V85.3033H60.3978V96.4487ZM72.3069 96.4487H83.365V85.3033H72.3069V96.4487ZM84.216 96.4487H95.2749V85.3033H84.216V96.4487ZM96.125 96.4487H107.185V85.3033H96.125V96.4487ZM108.035 96.4487H119.093V85.3033H108.035V96.4487ZM119.945 96.4487H131.003V85.3033H119.945V96.4487ZM131.853 96.4487H142.912V85.3033H131.853V96.4487ZM143.763 96.4487H154.822L154.821 85.3033H143.763V96.4487ZM155.672 96.4487H166.731V85.3033H155.672V96.4487ZM167.582 96.4487H178.64V85.3033H167.581L167.582 96.4487ZM179.491 96.4487H190.55V85.3033H179.491V96.4487ZM191.4 96.4487H202.458V85.3033H191.4V96.4487ZM203.31 96.4487H214.368V85.3033H203.31V96.4487ZM215.218 96.4487H226.278V85.3033H215.218V96.4487ZM227.128 96.4487H238.187V85.3033H227.128V96.4487ZM239.038 96.4487H250.096V85.3033H239.038V96.4487ZM250.947 96.4487H262.005V85.3033H250.947V96.4487ZM262.856 96.4487H273.915V85.3033H262.856V96.4487ZM274.765 96.4487H285.825V85.3033H274.765V96.4487ZM286.675 96.4487H297.733V85.3033H286.675V96.4487ZM298.585 96.4487H309.643V85.3033H298.585V96.4487ZM310.493 73.301V84.4465H321.552V73.301H310.493ZM0.850897 84.4465H11.9098V73.301H0.850897V84.4465ZM12.76 84.4465H23.8181V73.301H12.76V84.4465ZM24.6698 84.4465H35.728V73.301H24.6698V84.4465ZM36.5789 84.4465H47.6378V73.301H36.5789V84.4465ZM48.488 84.4465H59.5469V73.301H48.488V84.4465ZM60.3978 84.4465H71.456V73.301H60.3978V84.4465ZM72.3069 84.4465H83.365V73.301H72.3069V84.4465ZM84.216 84.4465H95.2749V73.301H84.216V84.4465ZM96.125 84.4465H107.185V73.301H96.125V84.4465ZM108.035 84.4465H119.093V73.301H108.035V84.4465ZM119.945 84.4465H131.003V73.301H119.945V84.4465ZM131.853 84.4465H142.912V73.301H131.853V84.4465ZM143.763 84.4465H154.821V73.301H143.763V84.4465ZM155.672 84.4465H166.731V73.301H155.672V84.4465ZM167.581 84.4465H178.64V73.301H167.581V84.4465ZM179.491 84.4465H190.55V73.301H179.491V84.4465ZM191.4 84.4465H202.458V73.301H191.4V84.4465ZM203.31 84.4465H214.368V73.301H203.31V84.4465ZM215.218 84.4465H226.278V73.301H215.218V84.4465ZM227.128 84.4465H238.187V73.301H227.128V84.4465ZM239.038 84.4465H250.096V73.301H239.038V84.4465ZM250.947 84.4465H262.005V73.301H250.947V84.4465ZM262.856 84.4465H273.915V73.301H262.856V84.4465ZM274.765 84.4465H285.825V73.301H274.765V84.4465ZM286.675 84.4465H297.733V73.301H286.675V84.4465ZM298.585 84.4465H309.643V73.301H298.585V84.4465ZM310.493 61.2988V72.4434H321.552V61.2988H310.493ZM0.850897 72.4434H11.9098V61.2988H0.850897V72.4434ZM12.76 72.4434H23.8181V61.2988H12.76V72.4434ZM24.6698 72.4434H35.728V61.2988H24.6698V72.4434ZM36.5789 72.4434H47.6378V61.2988H36.5789V72.4434ZM48.488 72.4434H59.5469V61.2988H48.488V72.4434ZM60.3978 72.4434H71.456V61.2988H60.3978V72.4434ZM72.3069 72.4434H83.365V61.2988H72.3069V72.4434ZM84.216 72.4434H95.2749V61.2988H84.216V72.4434ZM96.125 72.4434H107.185V61.2988H96.125V72.4434ZM108.035 72.4434H119.093V61.2988H108.035V72.4434ZM119.945 72.4434H131.003V61.2988H119.945V72.4434ZM131.853 72.4434H142.912V61.2988H131.853V72.4434ZM143.763 72.4434H154.821V61.2988H143.763V72.4434ZM155.672 72.4434H166.731V61.2988H155.672V72.4434ZM167.581 72.4434H178.64V61.2988H167.581V72.4434ZM179.491 72.4434H190.55V61.2988H179.491V72.4434ZM191.4 72.4434H202.458V61.2988H191.4V72.4434ZM203.31 72.4434H214.368V61.2988H203.31V72.4434ZM215.218 72.4434H226.278V61.2988H215.218V72.4434ZM227.128 72.4434H238.187V61.2988H227.128V72.4434ZM239.038 72.4434H250.096V61.2988H239.038V72.4434ZM250.947 72.4434H262.005V61.2988H250.947V72.4434ZM262.856 72.4434H273.915V61.2988H262.856V72.4434ZM274.765 72.4434H285.825V61.2988H274.765V72.4434ZM286.675 72.4434H297.733V61.2988H286.675V72.4434ZM298.585 72.4434H309.643V61.2988H298.585V72.4434ZM310.493 49.2958V60.4412H321.552V49.2958H310.493ZM0.850897 60.4412H11.9098V49.2958H0.850897V60.4412ZM12.76 60.4412H23.8181V49.2958H12.76V60.4412ZM24.6698 60.4412H35.728V49.2958H24.6698V60.4412ZM36.5789 60.4412H47.6378V49.2958H36.5789V60.4412ZM48.488 60.4412H59.5469V49.2958H48.488V60.4412ZM60.3978 60.4412H71.456V49.2958H60.3978V60.4412ZM72.3069 60.4412H83.365V49.2958H72.3069V60.4412ZM84.216 60.4412H95.2749V49.2958H84.216V60.4412ZM96.125 60.4412H107.185V49.2958H96.125V60.4412ZM108.035 60.4412H119.093V49.2958H108.035V60.4412ZM119.945 60.4412H131.003V49.2958H119.945V60.4412ZM131.853 60.4412H142.912V49.2958H131.853V60.4412ZM143.763 60.4412H154.821V49.2958H143.763V60.4412ZM155.672 60.4412H166.731V49.2958H155.672V60.4412ZM167.581 60.4412H178.64V49.2958H167.581V60.4412ZM179.491 60.4412H190.55V49.2958H179.491V60.4412ZM191.4 60.4412H202.458V49.2958H191.4V60.4412ZM203.31 60.4412H214.368V49.2958H203.31V60.4412ZM215.218 60.4412H226.278V49.2958H215.218V60.4412ZM227.128 60.4412H238.187V49.2958H227.128V60.4412ZM239.038 60.4412H250.096V49.2958H239.038V60.4412ZM250.947 60.4412H262.005V49.2958H250.947V60.4412ZM262.856 60.4412H273.915V49.2958H262.856V60.4412ZM274.765 60.4412H285.825V49.2958H274.765V60.4412ZM286.675 60.4412H297.733V49.2958H286.675V60.4412ZM298.585 60.4412H309.643V49.2958H298.585V60.4412ZM310.493 37.2935V48.439H321.552V37.2935H310.493ZM0.850897 48.439H11.9098V37.2935H0.850897V48.439ZM12.76 48.439H23.8181V37.2935H12.76V48.439ZM24.6698 48.439H35.728V37.2935H24.6698V48.439ZM36.5789 48.439H47.6378V37.2935H36.5789V48.439ZM48.488 48.439H59.5469V37.2935H48.488V48.439ZM60.3978 48.439H71.456V37.2935H60.3978V48.439ZM72.3069 48.439H83.365V37.2935H72.3069V48.439ZM84.216 48.439H95.2749V37.2935H84.216V48.439ZM96.125 48.439H107.185V37.2935H96.125V48.439ZM108.035 48.439H119.093V37.2935H108.035V48.439ZM119.945 48.439H131.003V37.2935H119.945V48.439ZM131.853 48.439H142.912V37.2935H131.853V48.439ZM143.763 48.439H154.821V37.2935H143.763V48.439ZM155.672 48.439H166.731V37.2935H155.672V48.439ZM167.581 48.439H178.64V37.2935H167.581V48.439ZM179.491 48.439H190.55V37.2935H179.491V48.439ZM191.4 48.439H202.458V37.2935H191.4V48.439ZM203.31 48.439H214.368V37.2935H203.31V48.439ZM215.218 48.439H226.278V37.2935H215.218V48.439ZM227.128 48.439H238.187V37.2935H227.128V48.439ZM239.038 48.439H250.096V37.2935H239.038V48.439ZM250.947 48.439H262.005V37.2935H250.947V48.439ZM262.856 48.439H273.915V37.2935H262.856V48.439ZM274.765 48.439H285.825V37.2935H274.765V48.439ZM286.675 48.439H297.733V37.2935H286.675V48.439ZM298.585 48.439H309.643V37.2935H298.585V48.439ZM310.493 25.2913V36.4359H321.552V25.2913H310.493ZM0.850897 36.4359H11.9098V25.2913H0.850897V36.4359ZM12.76 36.4359H23.8181V25.2913H12.76V36.4359ZM24.6698 36.4359H35.728V25.2913H24.6698V36.4359ZM36.5789 36.4359H47.6378V25.2913H36.5789V36.4359ZM48.488 36.4359H59.5469V25.2913H48.488V36.4359ZM60.3978 36.4359H71.456V25.2913H60.3978V36.4359ZM72.3069 36.4359H83.365V25.2913H72.3069V36.4359ZM84.216 36.4359H95.2749V25.2913H84.216V36.4359ZM96.125 36.4359H107.185V25.2913H96.125V36.4359ZM108.035 36.4359H119.093V25.2913H108.035V36.4359ZM119.945 36.4359H131.003V25.2913H119.945V36.4359ZM131.853 36.4359H142.912V25.2913H131.853V36.4359ZM143.763 36.4359H154.821V25.2913H143.763V36.4359ZM155.672 36.4359H166.731V25.2913H155.672V36.4359ZM167.581 36.4359H178.64V25.2913H167.581V36.4359ZM179.491 36.4359H190.55V25.2913H179.491V36.4359ZM191.4 36.4359H202.458V25.2913H191.4V36.4359ZM203.31 36.4359H214.368V25.2913H203.31V36.4359ZM215.218 36.4359H226.278V25.2913H215.218V36.4359ZM227.128 36.4359H238.187V25.2913H227.128V36.4359ZM239.038 36.4359H250.096V25.2913H239.038V36.4359ZM250.947 36.4359H262.005V25.2913H250.947V36.4359ZM262.856 36.4359H273.915V25.2913H262.856V36.4359ZM274.765 36.4359H285.825V25.2913H274.765V36.4359ZM286.675 36.4359H297.733V25.2913H286.675V36.4359ZM298.585 36.4359H309.643V25.2913H298.585V36.4359ZM310.493 13.2883V24.4337H321.552V13.2883H310.493ZM0.850897 24.4337H11.9098V13.2883H0.850897V24.4337ZM12.76 24.4337H23.8181V13.2883H12.76V24.4337ZM24.6698 24.4337H35.728V13.2883H24.6698V24.4337ZM36.5789 24.4337H47.6378V13.2883H36.5789V24.4337ZM48.488 24.4337H59.5469V13.2883H48.488V24.4337ZM60.3978 24.4337H71.456V13.2883H60.3978V24.4337ZM72.3069 24.4337H83.365V13.2883H72.3069V24.4337ZM84.216 24.4337H95.2749V13.2883H84.216V24.4337ZM96.125 24.4337H107.185V13.2883H96.125V24.4337ZM108.035 24.4337H119.093V13.2883H108.035V24.4337ZM119.945 24.4337H131.003V13.2883H119.945V24.4337ZM131.853 24.4337H142.912V13.2883H131.853V24.4337ZM143.763 24.4337H154.821V13.2883H143.763V24.4337ZM155.672 24.4337H166.731V13.2883H155.672V24.4337ZM167.581 24.4337H178.64V13.2883H167.581V24.4337ZM179.491 24.4337H190.55V13.2883H179.491V24.4337ZM191.4 24.4337H202.458V13.2883H191.4V24.4337ZM203.31 24.4337H214.368V13.2883H203.31V24.4337ZM215.218 24.4337H226.278V13.2883H215.218V24.4337ZM227.128 24.4337H238.187V13.2883H227.128V24.4337ZM239.038 24.4337H250.096V13.2883H239.038V24.4337ZM250.947 24.4337H262.005V13.2883H250.947V24.4337ZM262.856 24.4337H273.915V13.2883H262.856V24.4337ZM274.765 24.4337H285.825V13.2883H274.765V24.4337ZM286.675 24.4337H297.733V13.2883H286.675V24.4337ZM298.585 24.4337H309.643V13.2883H298.585V24.4337Z" fill="url(#paint0_radial_79_975)" fill-opacity="0.1"/>
<g opacity="0.3" filter="url(#filter0_f_79_975)">
<path d="M135.468 112.791C157.05 112.791 174.546 95.1586 174.546 73.4078C174.546 51.6571 157.05 34.0247 135.468 34.0247C113.886 34.0247 96.3906 51.6571 96.3906 73.4078C96.3906 95.1586 113.886 112.791 135.468 112.791Z" fill="#546DFA"/>
<path d="M183.318 137.654C204.9 137.654 222.396 120.021 222.396 98.2706C222.396 76.5199 204.9 58.8875 183.318 58.8875C161.736 58.8875 144.241 76.5199 144.241 98.2706C144.241 120.021 161.736 137.654 183.318 137.654Z" fill="#FDDB32"/>
</g>
<g filter="url(#filter1_d_79_975)">
<path d="M193.199 56.5232L160.331 47.6475C146.717 43.971 132.724 52.1134 129.076 65.834L120.269 98.9586C116.621 112.679 124.7 126.782 138.315 130.459L171.182 139.334C184.796 143.011 198.79 134.868 202.437 121.148L211.244 88.0231C214.892 74.3026 206.813 60.1996 193.199 56.5232Z" fill="url(#paint1_linear_79_975)"/>
</g>
<g filter="url(#filter2_d_79_975)">
<path d="M157.471 34.0318L124.603 42.9075C110.989 46.5839 102.91 60.6869 106.558 74.4075L115.365 107.532C119.013 121.253 133.006 129.395 146.62 125.719L179.488 116.843C193.102 113.166 201.181 99.0634 197.533 85.3429L188.726 52.2183C185.079 38.4977 171.085 30.3554 157.471 34.0318Z" fill="url(#paint2_linear_79_975)"/>
</g>
<g filter="url(#filter3_d_79_975)">
<path d="M176.515 43.5627H142.488C128.393 43.5627 116.968 55.0778 116.968 69.2824V103.575C116.968 117.78 128.393 129.295 142.488 129.295H176.515C190.609 129.295 202.035 117.78 202.035 103.575V69.2824C202.035 55.0778 190.609 43.5627 176.515 43.5627Z" fill="#FDDB32"/>
<path d="M148.332 90.3556L138.095 68.4475C137.777 67.7679 138.295 67 139.072 67H145.8C147.333 67 148.803 67.5844 149.887 68.6247L169.282 87.2362C170.219 88.1352 171.49 88.6403 172.815 88.6403H180.927C181.881 88.6403 182.359 89.7467 181.684 90.3938L167.655 103.857C166.892 104.589 165.857 105 164.779 105H155.936C155.112 105 154.597 104.144 155.009 103.459L161.041 93.434C161.453 92.7492 160.938 91.8931 160.114 91.8931H150.807C149.738 91.8931 148.769 91.2911 148.332 90.3556Z" fill="#191E3B"/>
</g>
<path d="M238.275 101.941L225.128 105.491C222.405 106.226 220.789 109.047 221.519 111.791L225.042 125.041C225.771 127.785 228.57 129.414 231.293 128.678L244.44 125.128C247.163 124.393 248.778 121.572 248.049 118.828L244.526 105.578C243.797 102.834 240.998 101.206 238.275 101.941Z" fill="#191E3B"/>
<g clip-path="url(#clip1_79_975)">
<path fill-rule="evenodd" clip-rule="evenodd" d="M235.843 118.62L236.464 118.968L236.117 119.589C236.002 119.793 235.935 120.02 235.92 120.254C235.905 120.487 235.943 120.721 236.031 120.938L236.021 120.938L234.396 121.869C234.292 121.928 234.171 121.95 234.053 121.93C233.935 121.91 233.828 121.85 233.749 121.76C233.67 121.67 233.625 121.555 233.622 121.435C233.618 121.316 233.655 121.199 233.728 121.104L234.504 120.091L233.611 116.92L230.024 119.253C229.893 119.339 229.736 119.373 229.581 119.351C229.426 119.329 229.285 119.25 229.184 119.132C229.083 119.013 229.028 118.861 229.031 118.704C229.033 118.548 229.093 118.398 229.198 118.283L232.859 114.255L231.962 111.073C231.874 110.759 231.913 110.423 232.073 110.138C232.232 109.854 232.498 109.644 232.812 109.555C233.126 109.467 233.462 109.507 233.747 109.666C234.031 109.826 234.241 110.091 234.329 110.405L235.226 113.588L239.485 114.829C239.418 114.839 239.351 114.853 239.285 114.871C239.087 114.926 238.902 115.02 238.74 115.148C238.578 115.275 238.443 115.433 238.343 115.613L237.996 116.234L237.375 115.886C237.195 115.784 236.997 115.719 236.792 115.693C236.587 115.668 236.379 115.683 236.18 115.739C235.981 115.794 235.795 115.888 235.632 116.016C235.47 116.143 235.334 116.302 235.233 116.482C235.132 116.663 235.068 116.861 235.044 117.066C235.02 117.272 235.037 117.479 235.093 117.678C235.15 117.877 235.246 118.062 235.374 118.224C235.503 118.386 235.662 118.52 235.843 118.62ZM239.474 118.119L240.899 118.918C241.046 119.002 241.154 119.141 241.199 119.305C241.244 119.468 241.223 119.643 241.14 119.791C241.057 119.939 240.919 120.048 240.756 120.095C240.593 120.142 240.419 120.123 240.27 120.042L238.844 119.243L238.342 120.139L238.045 120.67C238.004 120.744 237.948 120.809 237.882 120.861C237.815 120.914 237.739 120.952 237.658 120.975C237.576 120.998 237.491 121.005 237.407 120.995C237.323 120.985 237.242 120.959 237.168 120.917L237.149 120.906C237.006 120.819 236.902 120.681 236.86 120.519C236.817 120.358 236.839 120.186 236.921 120.04L237.196 119.55L237.72 118.614L236.441 117.898L236.294 117.815C236.147 117.731 236.039 117.592 235.994 117.428C235.949 117.265 235.97 117.09 236.053 116.942C236.136 116.794 236.274 116.685 236.437 116.638C236.6 116.591 236.775 116.61 236.924 116.691L238.35 117.49L238.996 116.335L239.148 116.064C239.189 115.989 239.244 115.923 239.311 115.87C239.377 115.817 239.453 115.777 239.535 115.753C239.617 115.73 239.703 115.723 239.788 115.732C239.872 115.742 239.954 115.769 240.029 115.81C240.103 115.852 240.168 115.908 240.221 115.975C240.273 116.042 240.312 116.119 240.335 116.201C240.358 116.283 240.364 116.369 240.353 116.454C240.342 116.538 240.315 116.62 240.272 116.694L239.474 118.119Z" fill="white"/>
</g>
<path d="M86.6598 46.783L73.5126 43.2327C70.7898 42.4974 67.9911 44.1259 67.2615 46.87L63.7387 60.12C63.0092 62.8641 64.625 65.6847 67.3478 66.42L80.495 69.9703C83.2178 70.7056 86.0165 69.0771 86.7461 66.333L90.2688 53.083C90.9984 50.3389 89.3826 47.5183 86.6598 46.783Z" fill="#191E3B"/>
<mask id="mask1_79_975" style="mask-type:luminance" maskUnits="userSpaceOnUse" x="68" y="48" width="18" height="18">
<path d="M72.4791 48.7041L85.6267 52.2542L82.1041 65.5046L68.9565 61.9537L72.4791 48.7041Z" fill="white"/>
</mask>
<g mask="url(#mask1_79_975)">
<path d="M81.6742 54.6782C81.5856 54.5877 81.518 54.4785 81.4764 54.3584L77.9858 54.3326L73.6378 53.1592L82.5674 53.2227C82.6796 53.2232 82.7891 53.2573 82.882 53.3207C82.9748 53.3841 83.0469 53.4739 83.089 53.5787C83.1169 53.6487 83.1313 53.7234 83.1305 53.7982L83.1169 55.7191L81.9845 55.4129L81.9884 54.8808C81.87 54.8375 81.7626 54.7688 81.6742 54.6782ZM76.4107 60.4169C76.8467 60.5346 77.3111 60.4729 77.7019 60.2455C78.0927 60.018 78.3778 59.6434 78.4946 59.2041C78.6113 58.7648 78.5501 58.2967 78.3245 57.9028C78.0988 57.509 77.7271 57.2216 77.2912 57.1039C77.0753 57.0457 76.8502 57.0308 76.6287 57.0602C76.4071 57.0897 76.1935 57.1628 76 57.2754C75.8065 57.388 75.6369 57.5379 75.5009 57.7166C75.3649 57.8953 75.2651 58.0992 75.2073 58.3168C75.1495 58.5343 75.1348 58.7612 75.1639 58.9845C75.1931 59.2077 75.2657 59.423 75.3774 59.618C75.4892 59.8131 75.6379 59.984 75.8152 60.1211C75.9925 60.2581 76.1949 60.3587 76.4107 60.4169Z" fill="white"/>
<path fill-rule="evenodd" clip-rule="evenodd" d="M82.6624 56.7793L72.8021 54.1157C72.7301 54.0963 72.6551 54.0913 72.5812 54.1011C72.5074 54.1109 72.4362 54.1352 72.3717 54.1728C72.3071 54.2103 72.2506 54.2603 72.2053 54.3199C72.1599 54.3795 72.1267 54.4475 72.1075 54.52L70.6401 60.0409C70.6013 60.1871 70.6217 60.3428 70.6967 60.4739C70.7718 60.605 70.8954 60.7007 71.0404 60.7401L80.9007 63.4029C81.0459 63.4417 81.2004 63.4211 81.3306 63.3455C81.4607 63.2699 81.5559 63.1455 81.5953 62.9994L83.0627 57.4777C83.0821 57.4053 83.0871 57.3298 83.0775 57.2554C83.0679 57.181 83.0438 57.1093 83.0066 57.0443C82.9694 56.9794 82.9198 56.9224 82.8608 56.8768C82.8017 56.8312 82.7343 56.7986 82.6624 56.7793ZM80.7803 61.6475C80.6539 61.6576 80.5314 61.6961 80.4217 61.76C80.312 61.824 80.2179 61.9119 80.1463 62.0172L72.3818 59.9195C72.3716 59.7924 72.3335 59.6692 72.2702 59.5588C72.2069 59.4484 72.12 59.3536 72.0157 59.2813L72.9217 55.8727C73.048 55.8625 73.1705 55.824 73.2802 55.76C73.3898 55.696 73.484 55.6082 73.5557 55.5029L81.321 57.6007C81.3306 57.728 81.3685 57.8516 81.4319 57.9621C81.4952 58.0727 81.5824 58.1676 81.687 58.2397L80.7803 61.6475Z" fill="white"/>
</g>
<path d="M42.2152 74.9538L29.068 78.5041C26.3452 79.2394 24.7294 82.06 25.459 84.8041L28.9817 98.0541C29.7113 100.798 32.51 102.427 35.2328 101.691L48.38 98.1411C51.1028 97.4058 52.7186 94.5852 51.989 91.8411L48.4663 78.5911C47.7367 75.847 44.938 74.2185 42.2152 74.9538Z" fill="#546DFA"/>
<g clip-path="url(#clip2_79_975)">
<path fill-rule="evenodd" clip-rule="evenodd" d="M40.798 88.0267L38.6837 87.3803L37.7779 83.9999C37.6885 83.6664 37.4704 83.3821 37.1713 83.2094C36.8723 83.0368 36.517 82.99 36.1835 83.0794C35.85 83.1688 35.5656 83.3869 35.393 83.6859C35.2204 83.9849 35.1736 84.3403 35.263 84.6738L36.1689 88.0546L32.238 92.2679C32.1251 92.3888 32.0601 92.5467 32.0552 92.7121C32.0503 92.8774 32.1058 93.0389 32.2114 93.1663C32.317 93.2937 32.4654 93.3782 32.6288 93.404C32.7922 93.4298 32.9595 93.3952 33.0992 93.3067L36.9276 90.8864L37.8303 94.2551L36.9947 95.3166C36.9164 95.4161 36.8749 95.5396 36.8773 95.6661C36.8797 95.7928 36.9258 95.9146 37.0079 96.011C37.0899 96.1075 37.2028 96.1725 37.3274 96.1952C37.4519 96.2179 37.5805 96.1967 37.6912 96.1353L39.424 95.1731L40.627 95.1528C39.7591 94.5909 39.1308 93.7266 38.864 92.7276C38.364 90.8661 39.2078 88.9551 40.798 88.0267ZM42.3112 88.489C42.2332 88.5038 42.1555 88.5215 42.0784 88.5421C41.5704 88.6781 41.1036 88.9368 40.7189 89.2954C40.3343 89.654 40.0437 90.1016 39.8725 90.5988C39.7014 91.096 39.6549 91.6276 39.7372 92.147C39.8196 92.6664 40.0283 93.1576 40.3449 93.5774L40.3481 93.5818C40.7492 94.1093 41.3029 94.5007 41.934 94.7029C42.5193 94.8907 43.1464 94.9056 43.7399 94.7457C45.4507 94.2873 46.4688 92.5232 46.0105 90.8129C45.5732 89.18 43.946 88.178 42.3112 88.489ZM43.4632 93.7122C43.0544 93.8216 42.6225 93.8074 42.2218 93.6713C41.8211 93.5352 41.4696 93.2832 41.2119 92.9474C40.9543 92.6116 40.802 92.2069 40.7743 91.7845C40.7467 91.3621 40.8448 90.941 41.0564 90.5744C41.268 90.2079 41.5836 89.9123 41.9632 89.7251C42.3428 89.5377 42.7694 89.4673 43.1891 89.5225C43.6088 89.5776 44.0027 89.756 44.3209 90.035C44.6393 90.314 44.8677 90.6811 44.9773 91.09C45.1237 91.6385 45.0465 92.2227 44.7626 92.7144C44.4787 93.206 44.0114 93.5648 43.4632 93.7122ZM43.4275 90.6627L43.2369 91.4806L43.7993 91.8048C43.868 91.8445 43.9233 91.9037 43.9583 91.9749C43.9934 92.046 44.0066 92.126 43.9963 92.2046C43.9859 92.2832 43.9525 92.357 43.9003 92.4167C43.8481 92.4764 43.7793 92.5193 43.7028 92.54C43.6816 92.5455 43.6601 92.5493 43.6384 92.5514C43.5547 92.5601 43.4705 92.542 43.3978 92.4997L42.5777 92.0272C42.5031 91.9843 42.4443 91.9185 42.41 91.8396C42.3758 91.7607 42.3678 91.6728 42.3873 91.589L42.638 90.5126L42.6454 90.4809C42.6698 90.3775 42.7339 90.2879 42.8241 90.2317C42.9142 90.1754 43.023 90.1571 43.1265 90.1806C43.2207 90.2029 43.3037 90.2583 43.3604 90.3366C43.4171 90.4151 43.4436 90.5112 43.4352 90.6076C43.434 90.6261 43.4313 90.6445 43.4275 90.6627Z" fill="white"/>
</g>
<mask id="mask2_79_975" style="mask-type:luminance" maskUnits="userSpaceOnUse" x="63" y="87" width="43" height="43">
<path d="M63.3796 96.3266L96.247 87.4509L105.054 120.575L72.1864 129.451L63.3796 96.3266Z" fill="white"/>
</mask>
<g mask="url(#mask2_79_975)">
<path fill-rule="evenodd" clip-rule="evenodd" d="M70.6863 100.69L79.1318 93.8078C79.44 93.5564 79.7972 93.373 80.1803 93.2696C80.5633 93.1661 80.9636 93.145 81.3552 93.2074L92.0832 94.9121C92.6251 94.9982 93.1305 95.2408 93.5384 95.6106C93.9462 95.9804 94.2388 96.4614 94.3808 96.9954L96.1058 103.482C98.9784 114.289 91.5018 121.717 88.1834 123.373C84.4878 123.61 74.3285 120.946 71.4551 110.139L69.7301 103.653C69.5879 103.119 69.6026 102.554 69.7725 102.028C69.9424 101.503 70.2593 101.038 70.6863 100.69ZM86.0326 102.476C86.1119 102.328 86.2197 102.198 86.3497 102.092C86.4797 101.987 86.6293 101.909 86.7897 101.862C86.95 101.816 87.118 101.802 87.2837 101.822C87.4493 101.842 87.6094 101.895 87.7544 101.979C88.0498 102.15 88.2675 102.431 88.3615 102.761C88.4555 103.092 88.4186 103.446 88.2584 103.749L86.9832 106.123L88.7752 112.267L88.1946 113.348L85.3467 109.171L84.062 111.563L84.4998 113.458L83.8905 114.592L82.526 113.07L81.4135 112.434L79.4397 112.046L80.0489 110.912L81.8369 110.291L83.1217 107.898L78.1804 107.62L78.761 106.539L84.7582 104.851L86.0326 102.476Z" fill="#FDDB32"/>
</g>
<path d="M281.869 72.9134L268.722 69.3631C266 68.6278 263.201 70.2563 262.471 73.0004L258.948 86.2504C258.219 88.9945 259.835 91.8151 262.558 92.5504L275.705 96.1007C278.427 96.836 281.226 95.2075 281.956 92.4634L285.479 79.2134C286.208 76.4693 284.592 73.6487 281.869 72.9134Z" fill="#546DFA"/>
<g clip-path="url(#clip3_79_975)">
<path fill-rule="evenodd" clip-rule="evenodd" d="M270.693 77.3592C270.638 77.3463 270.582 77.3405 270.524 77.3418C270.427 77.3451 270.332 77.3702 270.246 77.4153C270.16 77.4604 270.085 77.5242 270.027 77.6022C269.969 77.6801 269.929 77.7702 269.911 77.8656C269.892 77.9609 269.896 78.0593 269.921 78.1532L270.998 82.2273L267.706 82.2146L267.012 81.2212C266.945 81.1263 266.847 81.0579 266.735 81.0282C266.623 80.9984 266.504 81.0092 266.399 81.0585C266.294 81.1079 266.21 81.1927 266.161 81.298C266.113 81.4033 266.103 81.5224 266.134 81.6342L266.557 83.1704C266.629 83.4335 266.785 83.6658 267.002 83.8317C267.218 83.9977 267.483 84.0883 267.756 84.0896L277.272 84.129L277.276 84.1294C277.403 84.1412 277.53 84.1272 277.651 84.0883C277.772 84.0493 277.883 83.9863 277.979 83.9029C278.075 83.8195 278.153 83.7175 278.208 83.6032C278.263 83.4889 278.294 83.3645 278.3 83.2377C278.306 83.1109 278.285 82.9842 278.241 82.8654C278.196 82.7466 278.128 82.6382 278.04 82.5466C277.952 82.455 277.846 82.3823 277.729 82.3328C277.612 82.2832 277.487 82.258 277.36 82.2585L277.36 82.2573L273.98 82.2426L271.091 77.6446C271.001 77.5006 270.858 77.3981 270.693 77.3592ZM265.782 85.5937C265.622 85.5508 265.451 85.5733 265.308 85.6562C265.164 85.739 265.059 85.8755 265.016 86.0357C264.974 86.1958 264.996 86.3664 265.079 86.5099C265.162 86.6535 265.298 86.7582 265.458 86.8011L275.118 89.3893C275.278 89.4322 275.448 89.4098 275.592 89.3269C275.735 89.244 275.84 89.1075 275.883 88.9474C275.926 88.7873 275.904 88.6167 275.821 88.4731C275.738 88.3296 275.601 88.2248 275.441 88.1819L265.782 85.5937Z" fill="white"/>
</g>
<mask id="mask3_79_975" style="mask-type:luminance" maskUnits="userSpaceOnUse" x="207" y="24" width="43" height="43">
<path d="M216.799 24.8669L249.666 33.7426L240.859 66.8671L207.992 57.9914L216.799 24.8669Z" fill="white"/>
</mask>
<g mask="url(#mask3_79_975)">
<path fill-rule="evenodd" clip-rule="evenodd" d="M220.965 32.3265L231.693 30.6226C232.084 30.56 232.483 30.5811 232.865 30.6844C233.247 30.7877 233.604 30.9709 233.911 31.2222L242.356 38.1038C242.783 38.4524 243.1 38.9179 243.27 39.4441C243.44 39.9703 243.455 40.5348 243.314 41.0696L241.59 47.5558C239.553 55.2162 232.39 60.9589 224.861 60.7901C218.257 57.1428 214.902 48.5596 216.939 40.8992L218.664 34.413C218.807 33.8787 219.1 33.3974 219.509 33.0272C219.917 32.657 220.423 32.4136 220.965 32.3265ZM232.16 40.2353L228.737 39.311L228.524 40.1115L231.948 41.0358L232.16 40.2353ZM232.804 41.2673L233.837 41.5462L231.068 52.0189L223.838 50.0658L226.621 39.5979L227.668 39.8809L227.989 38.6728C228.024 38.5636 228.099 38.4725 228.2 38.4194C228.301 38.3662 228.418 38.3554 228.527 38.3891L232.8 39.5433C232.911 39.5688 233.007 39.6375 233.068 39.7343C233.129 39.8311 233.149 39.9482 233.124 40.0601L232.804 41.2673ZM231.856 52.2319L234.639 41.7632L235.372 41.9609C235.814 42.0647 236.197 42.3408 236.438 42.7289C236.679 43.1169 236.757 43.5853 236.656 44.0314L234.729 51.2771C234.596 51.7154 234.296 52.0827 233.894 52.2987C233.493 52.5146 233.023 52.5617 232.588 52.4296L231.856 52.2319ZM225.101 39.1872L225.785 39.3721L223.002 49.8408L222.317 49.6559C221.874 49.5504 221.491 49.2728 221.251 48.8838C221.011 48.4947 220.933 48.0257 221.034 47.5791L222.961 40.3326C223.094 39.895 223.395 39.5286 223.796 39.3138C224.197 39.0991 224.666 39.0536 225.101 39.1872Z" fill="#FDDB32"/>
</g>
</g>
</g>
<defs>
<filter id="filter0_f_79_975" x="48.3906" y="-13.9753" width="222.005" height="199.629" filterUnits="userSpaceOnUse" color-interpolation-filters="sRGB">
<feFlood flood-opacity="0" result="BackgroundImageFix"/>
<feBlend mode="normal" in="SourceGraphic" in2="BackgroundImageFix" result="shape"/>
<feGaussianBlur stdDeviation="24" result="effect1_foregroundBlur_79_975"/>
</filter>
<filter id="filter1_d_79_975" x="50.1392" y="-18.1613" width="231.235" height="231.96" filterUnits="userSpaceOnUse" color-interpolation-filters="sRGB">
<feFlood flood-opacity="0" result="BackgroundImageFix"/>
<feColorMatrix in="SourceAlpha" type="matrix" values="0 0 0 0 0 0 0 0 0 0 0 0 0 0 0 0 0 0 127 0" result="hardAlpha"/>
<feOffset dy="4.328"/>
<feGaussianBlur stdDeviation="34.627"/>
<feComposite in2="hardAlpha" operator="out"/>
<feColorMatrix type="matrix" values="0 0 0 0 0.0509804 0 0 0 0 0.45098 0 0 0 0 1 0 0 0 0.1 0"/>
<feBlend mode="normal" in2="BackgroundImageFix" result="effect1_dropShadow_79_975"/>
<feBlend mode="normal" in="SourceGraphic" in2="effect1_dropShadow_79_975" result="shape"/>
</filter>
<filter id="filter2_d_79_975" x="87.6341" y="19.4289" width="128.823" height="129.548" filterUnits="userSpaceOnUse" color-interpolation-filters="sRGB">
<feFlood flood-opacity="0" result="BackgroundImageFix"/>
<feColorMatrix in="SourceAlpha" type="matrix" values="0 0 0 0 0 0 0 0 0 0 0 0 0 0 0 0 0 0 127 0" result="hardAlpha"/>
<feOffset dy="4.328"/>
<feGaussianBlur stdDeviation="9.024"/>
<feComposite in2="hardAlpha" operator="out"/>
<feColorMatrix type="matrix" values="0 0 0 0 0.0509804 0 0 0 0 0.45098 0 0 0 0 1 0 0 0 0.1 0"/>
<feBlend mode="normal" in2="BackgroundImageFix" result="effect1_dropShadow_79_975"/>
<feBlend mode="normal" in="SourceGraphic" in2="effect1_dropShadow_79_975" result="shape"/>
</filter>
<filter id="filter3_d_79_975" x="94.5797" y="24.9057" width="129.843" height="130.508" filterUnits="userSpaceOnUse" color-interpolation-filters="sRGB">
<feFlood flood-opacity="0" result="BackgroundImageFix"/>
<feColorMatrix in="SourceAlpha" type="matrix" values="0 0 0 0 0 0 0 0 0 0 0 0 0 0 0 0 0 0 127 0" result="hardAlpha"/>
<feOffset dy="3.731"/>
<feGaussianBlur stdDeviation="11.194"/>
<feComposite in2="hardAlpha" operator="out"/>
<feColorMatrix type="matrix" values="0 0 0 0 0.564781 0 0 0 0 0.635133 0 0 0 0 0.688932 0 0 0 0.3 0"/>
<feBlend mode="normal" in2="BackgroundImageFix" result="effect1_dropShadow_79_975"/>
<feBlend mode="normal" in="SourceGraphic" in2="effect1_dropShadow_79_975" result="shape"/>
</filter>
<radialGradient id="paint0_radial_79_975" cx="0" cy="0" r="1" gradientUnits="userSpaceOnUse" gradientTransform="translate(155.672 91.3039) rotate(90) scale(97.7346 192.977)">
<stop offset="0.207" stop-color="#191E3B"/>
<stop offset="1" stop-color="white" stop-opacity="0"/>
</radialGradient>
<linearGradient id="paint1_linear_79_975" x1="176.766" y1="52.0854" x2="154.426" y2="134.809" gradientUnits="userSpaceOnUse">
<stop stop-color="#FFF4CC" stop-opacity="0"/>
<stop offset="1" stop-color="#FFF4CC"/>
</linearGradient>
<linearGradient id="paint2_linear_79_975" x1="193.13" y1="68.7802" x2="110.876" y2="90.6489" gradientUnits="userSpaceOnUse">
<stop stop-color="#FFF4CC"/>
<stop offset="1" stop-color="#FFF4CC" stop-opacity="0"/>
</linearGradient>
<clipPath id="clip0_79_975">
<rect width="319" height="172" fill="white"/>
</clipPath>
<clipPath id="clip1_79_975">
<rect width="14.7675" height="14.7675" fill="white" transform="translate(224.783 110.54) rotate(-15.7438)"/>
</clipPath>
<clipPath id="clip2_79_975">
<rect width="16.8" height="16.8" fill="white" transform="translate(28 83.0981) rotate(-15)"/>
</clipPath>
<clipPath id="clip3_79_975">
<rect width="15" height="15" fill="white" transform="translate(266.882 73.75) rotate(15)"/>
</clipPath>
</defs>
</svg>
